<?xml version="1.0" encoding="UTF-8"?>
<svg width="27px" height="29px" viewBox="0 0 27 29" version="1.1" xmlns="http://www.w3.org/2000/svg" xmlns:xlink="http://www.w3.org/1999/xlink">
    <!-- Generator: Sketch 48.2 (47327) - http://www.bohemiancoding.com/sketch -->
    <title>shuffle</title>
    <desc>Created with Sketch.</desc>
    <defs>
        <path d="M21.5554564,25.5 L15.6527282,19.5972718 C15.1157573,19.0603009 15.1157573,18.1896991 15.6527282,17.6527282 C16.1896991,17.1157573 17.0603009,17.1157573 17.5972718,17.6527282 L23.5,23.5554564 L23.5,20 C23.5,19.2406085 24.1156085,18.625 24.875,18.625 C25.6343915,18.625 26.25,19.2406085 26.25,20 L26.25,26.875 C26.25,27.6343915 25.6343915,28.25 24.875,28.25 L18,28.25 C17.2406085,28.25 16.625,27.6343915 16.625,26.875 C16.625,26.1156085 17.2406085,25.5 18,25.5 L21.5554564,25.5 Z M23.5,5.44454365 L2.47227182,26.4722718 C1.93530092,27.0092427 1.06469908,27.0092427 0.527728176,26.4722718 C-0.00924272529,25.9353009 -0.00924272529,25.0646991 0.527728176,24.5277282 L21.5554564,3.5 L18,3.5 C17.2406085,3.5 16.625,2.88439153 16.625,2.125 C16.625,1.36560847 17.2406085,0.75 18,0.75 L24.875,0.75 C25.6343915,0.75 26.25,1.36560847 26.25,2.125 L26.25,9 C26.25,9.75939153 25.6343915,10.375 24.875,10.375 C24.1156085,10.375 23.5,9.75939153 23.5,9 L23.5,5.44454365 Z M0.527728176,4.47227182 C-0.00924272529,3.93530092 -0.00924272529,3.06469908 0.527728176,2.52772818 C1.06469908,1.99075727 1.93530092,1.99075727 2.47227182,2.52772818 L9.34727182,9.40272818 C9.88424273,9.93969908 9.88424273,10.8103009 9.34727182,11.3472718 C8.81030092,11.8842427 7.93969908,11.8842427 7.40272818,11.3472718 L0.527728176,4.47227182 Z" id="path-1"></path>
    </defs>
    <g id="Home" stroke="none" stroke-width="1" fill="none" fill-rule="evenodd" transform="translate(-619.000000, -2688.000000)">
        <g id="shuffle" transform="translate(619.000000, 2688.000000)">
            <mask id="mask-2" fill="white">
                <use xlink:href="#path-1"></use>
            </mask>
            <use id="Combined-Shape" fill="#FFCE66" fill-rule="nonzero" xlink:href="#path-1"></use>
        </g>
    </g>
</svg>