<?xml version="1.0" encoding="UTF-8"?>
<svg width="27px" height="27px" viewBox="0 0 27 27" version="1.1" xmlns="http://www.w3.org/2000/svg" xmlns:xlink="http://www.w3.org/1999/xlink">
    <!-- Generator: Sketch 48.2 (47327) - http://www.bohemiancoding.com/sketch -->
    <title>external-link</title>
    <desc>Created with Sketch.</desc>
    <defs>
        <path d="M22.0066408,3.16666667 L17.375,3.16666667 C16.6616322,3.16666667 16.0833333,2.5883678 16.0833333,1.875 C16.0833333,1.1616322 16.6616322,0.583333333 17.375,0.583333333 L25.125,0.583333333 C25.8383678,0.583333333 26.4166667,1.1616322 26.4166667,1.875 L26.4166667,9.625 C26.4166667,10.3383678 25.8383678,10.9166667 25.125,10.9166667 C24.4116322,10.9166667 23.8333333,10.3383678 23.8333333,9.625 L23.8333333,4.99335918 L11.8300129,16.9966796 C11.3255857,17.5011068 10.5077476,17.5011068 10.0033204,16.9966796 C9.4988932,16.4922524 9.4988932,15.6744143 10.0033204,15.1699871 L22.0066408,3.16666667 Z M19.9583333,14.7916667 C19.9583333,14.0782989 20.5366322,13.5 21.25,13.5 C21.9633678,13.5 22.5416667,14.0782989 22.5416667,14.7916667 L22.5416667,22.5416667 C22.5416667,24.6817701 20.8067701,26.4166667 18.6666667,26.4166667 L4.45833333,26.4166667 C2.31822993,26.4166667 0.583333333,24.6817701 0.583333333,22.5416667 L0.583333333,8.33333333 C0.583333333,6.19322993 2.31822993,4.45833333 4.45833333,4.45833333 L12.2083333,4.45833333 C12.9217011,4.45833333 13.5,5.0366322 13.5,5.75 C13.5,6.4633678 12.9217011,7.04166667 12.2083333,7.04166667 L4.45833333,7.04166667 C3.74496553,7.04166667 3.16666667,7.61996553 3.16666667,8.33333333 L3.16666667,22.5416667 C3.16666667,23.2550345 3.74496553,23.8333333 4.45833333,23.8333333 L18.6666667,23.8333333 C19.3800345,23.8333333 19.9583333,23.2550345 19.9583333,22.5416667 L19.9583333,14.7916667 Z" id="path-1"></path>
    </defs>
    <g id="Home" stroke="none" stroke-width="1" fill="none" fill-rule="evenodd" transform="translate(-1016.000000, -2690.000000)">
        <g id="external-link" transform="translate(1016.000000, 2690.000000)">
            <mask id="mask-2" fill="white">
                <use xlink:href="#path-1"></use>
            </mask>
            <use id="Combined-Shape" fill="#BDC3C7" fill-rule="nonzero" xlink:href="#path-1"></use>
        </g>
    </g>
</svg>