<?xml version="1.0" encoding="UTF-8"?>
<svg width="29px" height="31px" viewBox="0 0 29 31" version="1.1" xmlns="http://www.w3.org/2000/svg" xmlns:xlink="http://www.w3.org/1999/xlink">
    <!-- Generator: Sketch 48.2 (47327) - http://www.bohemiancoding.com/sketch -->
    <title>lock</title>
    <desc>Created with Sketch.</desc>
    <defs>
        <path d="M6.25,12.75 L6.25,8.625 C6.25,4.06865081 9.94365081,0.375 14.5,0.375 C19.0563492,0.375 22.75,4.06865081 22.75,8.625 L22.75,12.75 L24.125,12.75 C26.4031746,12.75 28.25,14.5968254 28.25,16.875 L28.25,26.5 C28.25,28.7781746 26.4031746,30.625 24.125,30.625 L4.875,30.625 C2.59682541,30.625 0.75,28.7781746 0.75,26.5 L0.75,16.875 C0.75,14.5968254 2.59682541,12.75 4.875,12.75 L6.25,12.75 Z M9,12.75 L20,12.75 L20,8.625 C20,5.58743388 17.5375661,3.125 14.5,3.125 C11.4624339,3.125 9,5.58743388 9,8.625 L9,12.75 Z M4.875,15.5 C4.11560847,15.5 3.5,16.1156085 3.5,16.875 L3.5,26.5 C3.5,27.2593915 4.11560847,27.875 4.875,27.875 L24.125,27.875 C24.8843915,27.875 25.5,27.2593915 25.5,26.5 L25.5,16.875 C25.5,16.1156085 24.8843915,15.5 24.125,15.5 L4.875,15.5 Z" id="path-1"></path>
    </defs>
    <g id="Home" stroke="none" stroke-width="1" fill="none" fill-rule="evenodd" transform="translate(-619.000000, -2466.000000)">
        <g id="lock" transform="translate(619.000000, 2466.000000)">
            <mask id="mask-2" fill="white">
                <use xlink:href="#path-1"></use>
            </mask>
            <use id="Combined-Shape" fill="#4199FF" xlink:href="#path-1"></use>
        </g>
    </g>
</svg>