<?xml version="1.0" encoding="UTF-8"?>
<svg width="11px" height="19px" viewBox="0 0 11 19" version="1.1" xmlns="http://www.w3.org/2000/svg" xmlns:xlink="http://www.w3.org/1999/xlink">
    <!-- Generator: Sketch 48.2 (47327) - http://www.bohemiancoding.com/sketch -->
    <title>Combined Shape</title>
    <desc>Created with Sketch.</desc>
    <defs>
        <path d="M545.995342,571.718523 C545.998425,571.75301 546,571.787933 546,571.823223 C546,571.938564 545.983176,572.049976 545.951849,572.155139 C545.814289,572.642684 545.366186,573 544.834627,573 C544.768686,573 544.704029,572.994501 544.64109,572.983937 L534.160714,572.983937 C533.519669,572.983937 533,572.464268 533,571.823223 C533,571.182178 533.519669,570.662509 534.160714,570.662509 L543.673913,570.662509 L543.673913,561.160714 C543.673913,560.519669 544.193583,560 544.834627,560 C545.475672,560 545.995342,560.519669 545.995342,561.160714 L545.995342,571.718523 Z" id="path-1"></path>
    </defs>
    <g id="Dashboard" stroke="none" stroke-width="1" fill="none" fill-rule="evenodd" transform="translate(-533.000000, -557.000000)">
        <g id="Save-Card-Plus-Modal" transform="translate(-5.000000, 0.000000)">
            <g id="Combined-Shape" transform="translate(539.500000, 566.500000) rotate(-45.000000) translate(-539.500000, -566.500000) ">
                <use fill="#FFFFFF" fill-rule="evenodd" xlink:href="#path-1"></use>
                <path stroke-opacity="0" stroke="#979797" stroke-width="0.920000017" d="M545.537169,571.759485 L545.535342,571.718523 L545.535342,561.160714 C545.535342,560.77372 545.221621,560.46 544.834627,560.46 C544.447634,560.46 544.133913,560.77372 544.133913,561.160714 L544.133913,571.122509 L534.160714,571.122509 C533.77372,571.122509 533.46,571.436229 533.46,571.823223 C533.46,572.210217 533.77372,572.523937 534.160714,572.523937 L544.717233,572.530283 C544.755626,572.536727 544.79482,572.54 544.834627,572.54 C545.150334,572.54 545.424769,572.329232 545.510994,572.023811 C545.530146,571.95952 545.54,571.892285 545.54,571.823223 C545.54,571.80179 545.539051,571.780535 545.537169,571.759485 Z"></path>
            </g>
        </g>
    </g>
</svg>