<?xml version="1.0" encoding="UTF-8"?>
<svg width="29px" height="24px" viewBox="0 0 29 24" version="1.1" xmlns="http://www.w3.org/2000/svg" xmlns:xlink="http://www.w3.org/1999/xlink">
    <!-- Generator: Sketch 48.2 (47327) - http://www.bohemiancoding.com/sketch -->
    <title>icon-colour-Twitter</title>
    <desc>Created with Sketch.</desc>
    <defs></defs>
    <g id="Profile" stroke="none" stroke-width="1" fill="none" fill-rule="evenodd" transform="translate(-207.000000, -441.000000)">
        <path d="M236,443.84117 C234.934437,444.323077 233.787169,444.648971 232.58373,444.794583 C233.812702,444.04572 234.755708,442.858288 235.199977,441.44377 C234.049304,442.137161 232.777778,442.641603 231.41944,442.912026 C230.336855,441.734995 228.789576,441 227.077185,441 C223.793684,441 221.129776,443.712893 221.129776,447.058505 C221.129776,447.533478 221.180842,447.994583 221.282972,448.438353 C216.338146,448.185265 211.955039,445.775731 209.018783,442.105959 C208.506427,443.0039 208.213653,444.04572 208.213653,445.155146 C208.213653,447.256121 209.263896,449.110943 210.860539,450.197833 C209.886893,450.168364 208.967717,449.892741 208.164289,449.442037 L208.164289,449.516576 C208.164289,452.453088 210.215414,454.902492 212.938898,455.457205 C212.44016,455.59935 211.914187,455.670423 211.371192,455.670423 C210.988202,455.670423 210.613723,455.63402 210.251159,455.562947 C211.008628,457.969014 213.204437,459.72156 215.808769,459.768364 C213.772965,461.394366 211.206081,462.36338 208.419616,462.36338 C207.939602,462.36338 207.464694,462.335645 207,462.280173 C209.633269,463.996316 212.761871,465 216.120268,465 C227.06527,465 233.048424,455.769231 233.048424,447.762297 C233.048424,447.498808 233.043317,447.23532 233.033104,446.977031 C234.195692,446.122427 235.205083,445.056338 236,443.84117" id="Twitter" fill="#00AAEC"></path>
    </g>
</svg>