<?xml version="1.0" encoding="UTF-8"?>
<svg width="64px" height="55px" viewBox="0 0 64 55" version="1.1" xmlns="http://www.w3.org/2000/svg" xmlns:xlink="http://www.w3.org/1999/xlink">
    <!-- Generator: Sketch 48.2 (47327) - http://www.bohemiancoding.com/sketch -->
    <title>interface2-icons-03</title>
    <desc>Created with Sketch.</desc>
    <defs></defs>
    <g id="Dashboard" stroke="none" stroke-width="1" fill="none" fill-rule="evenodd" transform="translate(-723.000000, -218.000000)" stroke-linecap="round" stroke-linejoin="round">
        <g id="Save-Group-Modal" transform="translate(-5.000000, 0.000000)" stroke="#5278F9" stroke-width="3.89999986">
            <g id="interface2-icons-03" transform="translate(730.000000, 220.000000)">
                <path d="M55.9565217,51 L4.04347826,51 C3.39130435,51 2.73913043,50.4769231 2.73913043,49.8230769 L0,15.0384615 C0,14.2538462 0.52173913,13.6 1.30434783,13.6 L58.6956522,13.6 C59.4782609,13.6 60,14.2538462 60,15.0384615 L57.2608696,49.8230769 C57.1304348,50.4769231 56.6086957,51 55.9565217,51 Z M25.3043478,6.53846154 L25.3043478,6.66923077 L53.4782609,6.66923077 C54.2608696,6.66923077 54.7826087,7.19230769 54.7826087,7.97692308 L54.7826087,13.0769231 L4.56521739,13.0769231 L4.56521739,6.14615385 L4.56521739,1.96153846 C4.56521739,1.17692308 5.08695652,0.653846154 5.86956522,0.653846154 L24,0.653846154 C24.7826087,0.653846154 25.3043478,1.17692308 25.3043478,1.96153846 L25.3043478,6.53846154 Z" id="Combined-Shape"></path>
            </g>
        </g>
    </g>
</svg>