<svg width="27px" height="16px" viewBox="0 0 27 16" version="1.1" xmlns="http://www.w3.org/2000/svg" xmlns:xlink="http://www.w3.org/1999/xlink">
						<g id="list-layout-icon" stroke="none" stroke-width="1" fill="none" fill-rule="evenodd" transform="translate(-1435.000000, -231.000000)">
								<path d="M1435.72727,231 L1440.82273,231 C1441.22439,231 1441.55,231.325611 1441.55,231.727273 L1441.55,236.818182 C1441.55,237.219843 1441.22439,237.545455 1440.82273,237.545455 L1435.72727,237.545455 C1435.32561,237.545455 1435,237.219843 1435,236.818182 L1435,231.727273 C1435,231.325611 1435.32561,231 1435.72727,231 Z M1444.72727,231 L1460.95694,231 C1461.3586,231 1461.68421,231.325611 1461.68421,231.727273 L1461.68421,236.818182 C1461.68421,237.219843 1461.3586,237.545455 1460.95694,237.545455 L1444.72727,237.545455 C1444.32561,237.545455 1444,237.219843 1444,236.818182 L1444,231.727273 C1444,231.325611 1444.32561,231 1444.72727,231 Z M1435.72727,240 L1440.82273,240 C1441.22439,240 1441.55,240.325611 1441.55,240.727273 L1441.55,245.818182 C1441.55,246.219843 1441.22439,246.545455 1440.82273,246.545455 L1435.72727,246.545455 C1435.32561,246.545455 1435,246.219843 1435,245.818182 L1435,240.727273 C1435,240.325611 1435.32561,240 1435.72727,240 Z M1444.72727,240 L1460.95694,240 C1461.3586,240 1461.68421,240.325611 1461.68421,240.727273 L1461.68421,245.818182 C1461.68421,246.219843 1461.3586,246.545455 1460.95694,246.545455 L1444.72727,246.545455 C1444.32561,246.545455 1444,246.219843 1444,245.818182 L1444,240.727273 C1444,240.325611 1444.32561,240 1444.72727,240 Z" id="icon-list-layout" fill="#B8B8B8"></path>
						</g>
				</svg>