<?xml version="1.0" encoding="UTF-8"?>
<svg width="29px" height="29px" viewBox="0 0 29 29" version="1.1" xmlns="http://www.w3.org/2000/svg" xmlns:xlink="http://www.w3.org/1999/xlink">
    <!-- Generator: Sketch 48.2 (47327) - http://www.bohemiancoding.com/sketch -->
    <title>icon-colour-Facebook</title>
    <desc>Created with Sketch.</desc>
    <defs></defs>
    <g id="Profile" stroke="none" stroke-width="1" fill="none" fill-rule="evenodd" transform="translate(-158.000000, -439.000000)">
        <path d="M173.48984,468 L159.600577,468 C158.716344,468 158,467.283212 158,466.399323 L158,440.600565 C158,439.716451 158.716456,439 159.600577,439 L185.399535,439 C186.283431,439 187,439.716451 187,440.600565 L187,466.399323 C187,467.283324 186.283319,468 185.399535,468 L178.00958,468 L178.00958,456.769602 L181.779107,456.769602 L182.34354,452.392916 L178.00958,452.392916 L178.00958,449.598679 C178.00958,448.331528 178.361451,447.468006 180.178529,447.468006 L182.496126,447.466993 L182.496126,443.552451 C182.095306,443.499113 180.719557,443.379949 179.118979,443.379949 C175.777504,443.379949 173.48984,445.419589 173.48984,449.16523 L173.48984,452.392916 L169.710636,452.392916 L169.710636,456.769602 L173.48984,456.769602 L173.48984,468 L173.48984,468 Z" id="Facebook" fill="#4460A0"></path>
    </g>
</svg>