<?xml version="1.0" encoding="UTF-8"?>
<svg width="28px" height="28px" viewBox="0 0 28 28" version="1.1" xmlns="http://www.w3.org/2000/svg" xmlns:xlink="http://www.w3.org/1999/xlink">
    <!-- Generator: Sketch 48.2 (47327) - http://www.bohemiancoding.com/sketch -->
    <title>Facebook</title>
    <desc>Created with Sketch.</desc>
    <defs></defs>
    <g id="Profile-Settings" stroke="none" stroke-width="1" fill="none" fill-rule="evenodd" transform="translate(-758.000000, -1272.000000)">
        <path d="M772.955707,1300 L759.545385,1300 C758.691642,1300 758,1299.30793 758,1298.45452 L758,1273.54537 C758,1272.69175 758.691751,1272 759.545385,1272 L784.454724,1272 C785.30814,1272 786,1272.69175 786,1273.54537 L786,1298.45452 C786,1299.30804 785.308032,1300 784.454724,1300 L777.319595,1300 L777.319595,1289.15686 L780.959137,1289.15686 L781.504107,1284.93109 L777.319595,1284.93109 L777.319595,1282.23321 C777.319595,1281.00975 777.659332,1280.17601 779.413752,1280.17601 L781.651432,1280.17503 L781.651432,1276.39547 C781.264433,1276.34397 779.936124,1276.22892 778.390739,1276.22892 C775.164487,1276.22892 772.955707,1278.19822 772.955707,1281.81471 L772.955707,1284.93109 L769.306821,1284.93109 L769.306821,1289.15686 L772.955707,1289.15686 L772.955707,1300 L772.955707,1300 Z" id="Facebook" fill="#DDDDDD"></path>
    </g>
</svg>