<?xml version="1.0" encoding="UTF-8"?>
<svg width="104px" height="34px" viewBox="0 0 104 34" version="1.1" xmlns="http://www.w3.org/2000/svg" xmlns:xlink="http://www.w3.org/1999/xlink">
    <!-- Generator: Sketch 48.2 (47327) - http://www.bohemiancoding.com/sketch -->
    <title>Group 23</title>
    <desc>Created with Sketch.</desc>
    <defs>
        <linearGradient x1="15.2268639%" y1="-29.1241671%" x2="75.1004464%" y2="141.488487%" id="linearGradient-1">
            <stop stop-color="#3488FF" offset="0%"></stop>
            <stop stop-color="#6B6AF3" offset="100%"></stop>
        </linearGradient>
        <linearGradient x1="-0.694411793%" y1="15.5419368%" x2="99.3055882%" y2="84.4580632%" id="linearGradient-2">
            <stop stop-color="#4FD9E3" offset="0%"></stop>
            <stop stop-color="#50F699" offset="100%"></stop>
        </linearGradient>
    </defs>
    <g id="Home" stroke="none" stroke-width="1" fill="none" fill-rule="evenodd" transform="translate(-38.000000, -49.000000)">
        <g id="header-2">
            <g id="Group-23" transform="translate(35.000000, 45.000000)">
                <g id="Nav">
                    <g id="Group-7">
                        <rect id="Rectangle" fill="url(#linearGradient-1)" transform="translate(20.921053, 21.000000) rotate(-315.000000) translate(-20.921053, -21.000000) " x="6.50877193" y="6.53333333" width="28.8245614" height="28.9333333" rx="8.39231967"></rect>
                        <rect id="Rectangle" fill="url(#linearGradient-2)" opacity="0.799999952" transform="translate(32.078947, 21.000000) rotate(-315.000000) translate(-32.078947, -21.000000) " x="17.6666667" y="6.53333333" width="28.8245614" height="28.9333333" rx="8.39231967"></rect>
                    </g>
                </g>
                <path d="M63.2415,27 C62.4855,27 61.8555,26.391 61.8555,25.614 C61.8555,25.32 61.9605,25.026 62.1285,24.816 L69.1425,15.156 L62.9475,15.156 C62.3595,15.156 61.8555,14.673 61.8555,14.085 C61.8555,13.476 62.3595,12.993 62.9475,12.993 L71.0745,12.993 C71.8305,12.993 72.4605,13.602 72.4605,14.379 C72.4605,14.673 72.3555,14.967 72.1875,15.177 L65.1735,24.837 L71.5155,24.837 C72.1035,24.837 72.6075,25.32 72.6075,25.908 C72.6075,26.517 72.1035,27 71.5155,27 L63.2415,27 Z M79.0335,16.605 C81.2805,16.605 83.2545,17.55 83.2545,20.28 L83.2545,26.013 C83.2545,26.622 82.7505,27.126 82.1415,27.126 C81.5535,27.126 81.0495,26.622 81.0495,26.013 L81.0495,25.908 C80.2935,26.769 79.1175,27.252 77.7735,27.252 C76.1145,27.252 74.2455,26.139 74.2455,23.892 C74.2455,21.561 76.1145,20.595 77.7735,20.595 C79.1385,20.595 80.3145,21.036 81.0495,21.897 L81.0495,20.385 C81.0495,19.209 80.0835,18.495 78.6765,18.495 C77.8155,18.495 77.0595,18.726 76.3035,19.251 C76.1775,19.335 75.9885,19.398 75.7995,19.398 C75.3165,19.398 74.9175,18.999 74.9175,18.516 C74.9175,18.222 75.0855,17.949 75.2955,17.802 C76.4085,16.983 77.6685,16.605 79.0335,16.605 Z M78.6345,25.74 C79.6005,25.74 80.5455,25.383 81.0495,24.69 L81.0495,23.157 C80.5455,22.464 79.6005,22.107 78.6345,22.107 C77.3955,22.107 76.4715,22.821 76.4715,23.934 C76.4715,25.026 77.3955,25.74 78.6345,25.74 Z M93.7125,16.731 C94.3215,16.731 94.8045,17.214 94.8045,17.823 C94.8045,17.97 94.7625,18.117 94.7205,18.243 L91.5285,26.076 C91.2765,26.706 90.6675,27.126 89.9745,27.126 C89.2605,27.126 88.6515,26.706 88.3995,26.076 L85.2075,18.222 C85.1655,18.096 85.1235,17.97 85.1235,17.823 C85.1235,17.214 85.6065,16.731 86.1945,16.731 C86.6565,16.731 87.0765,17.025 87.2235,17.424 L89.9535,24.48 L92.6835,17.424 C92.8305,17.025 93.2505,16.731 93.7125,16.731 Z M96.0435,21.918 C96.0435,18.978 98.1855,16.605 101.1885,16.605 C104.2335,16.605 106.1865,18.936 106.1865,21.624 C106.1865,22.275 105.7245,22.653 104.8845,22.653 L98.3535,22.653 C98.5215,24.186 99.6765,25.446 101.5875,25.446 C102.3225,25.446 103.1835,25.215 103.8975,24.774 C104.0235,24.69 104.1915,24.648 104.3805,24.648 C104.8635,24.648 105.2625,25.047 105.2625,25.53 C105.2625,25.845 105.0945,26.097 104.8635,26.265 C103.8555,26.937 102.6375,27.252 101.3565,27.252 C98.3115,27.252 96.0435,25.131 96.0435,21.918 Z M101.1885,18.411 C99.2985,18.411 98.4375,19.86 98.3325,21.099 L104.0445,21.099 C104.0025,19.902 103.1835,18.411 101.1885,18.411 Z" id="Zave" fill="url(#linearGradient-1)"></path>
            </g>
        </g>
    </g>
</svg>