<?xml version="1.0" encoding="UTF-8"?>
<svg width="31px" height="31px" viewBox="0 0 31 31" version="1.1" xmlns="http://www.w3.org/2000/svg" xmlns:xlink="http://www.w3.org/1999/xlink">
    <!-- Generator: Sketch 48.2 (47327) - http://www.bohemiancoding.com/sketch -->
    <title>at-sign</title>
    <desc>Created with Sketch.</desc>
    <defs>
        <path d="M22.375896,15.5006176 L22.375896,16.8756176 C22.375896,18.3944006 23.6071129,19.6256176 25.125896,19.6256176 C26.644679,19.6256176 27.875896,18.3944006 27.875896,16.8756176 L27.875896,15.5007041 C27.8755338,9.74992356 23.9135873,4.75724186 18.3132861,3.45029733 C12.7129849,2.14335279 6.95036692,4.86660896 4.40455018,10.0231868 C1.85873343,15.1797646 3.20070364,21.4105756 7.64354836,25.0619601 C12.0863931,28.7133445 18.4591383,28.8229287 23.024896,25.3264541 C23.627805,24.8647441 24.4908493,24.9792085 24.9525594,25.5821176 C25.4142694,26.1850266 25.299805,27.0480709 24.696896,27.509781 C19.1165255,31.7832499 11.3276147,31.6493136 5.89747111,27.1865104 C0.467327556,22.7237072 -1.17285825,15.1082715 1.93869555,8.8057875 C5.05024935,2.50330353 12.0934491,-0.825120686 18.9382617,0.77225597 C25.7830743,2.36963263 30.6254533,8.47179914 30.625896,15.5006176 L30.625896,16.8756176 C30.625896,19.9131837 28.1634621,22.3756176 25.125896,22.3756176 C23.276661,22.3756176 21.6405835,21.4629822 20.6434974,20.0635456 C19.3841044,21.4818934 17.5468704,22.3756176 15.500896,22.3756176 C11.7039383,22.3756176 8.62589597,19.2975752 8.62589597,15.5006176 C8.62589597,11.7036599 11.7039383,8.62561756 15.500896,8.62561756 C19.2978536,8.62561756 22.375896,11.7036599 22.375896,15.5006176 Z M15.500896,19.6256176 C17.7790706,19.6256176 19.625896,17.7787922 19.625896,15.5006176 C19.625896,13.222443 17.7790706,11.3756176 15.500896,11.3756176 C13.2227214,11.3756176 11.375896,13.222443 11.375896,15.5006176 C11.375896,17.7787922 13.2227214,19.6256176 15.500896,19.6256176 Z" id="path-1"></path>
    </defs>
    <g id="Home" stroke="none" stroke-width="1" fill="none" fill-rule="evenodd" transform="translate(-1014.000000, -2466.000000)">
        <g id="at-sign" transform="translate(1014.000000, 2466.000000)">
            <mask id="mask-2" fill="white">
                <use xlink:href="#path-1"></use>
            </mask>
            <use id="Combined-Shape" fill="#4AD97F" fill-rule="nonzero" xlink:href="#path-1"></use>
        </g>
    </g>
</svg>