<?xml version="1.0" encoding="UTF-8"?>
<svg width="16px" height="16px" viewBox="0 0 16 16" version="1.1" xmlns="http://www.w3.org/2000/svg" xmlns:xlink="http://www.w3.org/1999/xlink">
    <!-- Generator: Sketch 48.2 (47327) - http://www.bohemiancoding.com/sketch -->
    <title>icon-grid-layout</title>
    <desc>Created with Sketch.</desc>
    <defs></defs>
    <g id="Dashboard" stroke="none" stroke-width="1" fill="none" fill-rule="evenodd" transform="translate(-1380.000000, -232.000000)">
        <path d="M1380.72727,232 L1385.81818,232 C1386.21984,232 1386.54545,232.325611 1386.54545,232.727273 L1386.54545,237.818182 C1386.54545,238.219843 1386.21984,238.545455 1385.81818,238.545455 L1380.72727,238.545455 C1380.32561,238.545455 1380,238.219843 1380,237.818182 L1380,232.727273 C1380,232.325611 1380.32561,232 1380.72727,232 Z M1390.18182,232 L1395.27273,232 C1395.67439,232 1396,232.325611 1396,232.727273 L1396,237.818182 C1396,238.219843 1395.67439,238.545455 1395.27273,238.545455 L1390.18182,238.545455 C1389.78016,238.545455 1389.45455,238.219843 1389.45455,237.818182 L1389.45455,232.727273 C1389.45455,232.325611 1389.78016,232 1390.18182,232 Z M1380.72727,241.454545 L1385.81818,241.454545 C1386.21984,241.454545 1386.54545,241.780157 1386.54545,242.181818 L1386.54545,247.272727 C1386.54545,247.674389 1386.21984,248 1385.81818,248 L1380.72727,248 C1380.32561,248 1380,247.674389 1380,247.272727 L1380,242.181818 C1380,241.780157 1380.32561,241.454545 1380.72727,241.454545 Z M1390.18182,241.454545 L1395.27273,241.454545 C1395.67439,241.454545 1396,241.780157 1396,242.181818 L1396,247.272727 C1396,247.674389 1395.67439,248 1395.27273,248 L1390.18182,248 C1389.78016,248 1389.45455,247.674389 1389.45455,247.272727 L1389.45455,242.181818 C1389.45455,241.780157 1389.78016,241.454545 1390.18182,241.454545 Z" id="icon-grid-layout" fill="#B8B8B8"></path>
    </g>
</svg>