<?xml version="1.0" encoding="UTF-8"?>
<svg width="28px" height="23px" viewBox="0 0 28 23" version="1.1" xmlns="http://www.w3.org/2000/svg" xmlns:xlink="http://www.w3.org/1999/xlink">
    <!-- Generator: Sketch 48.2 (47327) - http://www.bohemiancoding.com/sketch -->
    <title>Twitter</title>
    <desc>Created with Sketch.</desc>
    <defs></defs>
    <g id="Profile-Settings" stroke="none" stroke-width="1" fill="none" fill-rule="evenodd" transform="translate(-758.000000, -935.000000)">
        <path d="M786,937.722788 C784.97118,938.184615 783.863474,938.49693 782.701532,938.636475 C783.888126,937.918815 784.798615,936.78086 785.227564,935.42528 C784.11657,936.08978 782.888889,936.573203 781.57739,936.832358 C780.532136,935.70437 779.038211,935 777.384868,935 C774.214592,935 771.642543,937.599856 771.642543,940.806067 C771.642543,941.26125 771.691847,941.703142 771.790456,942.128422 C767.016141,941.885879 762.784176,939.576743 759.949169,936.059877 C759.454481,936.920404 759.171803,937.918815 759.171803,938.982015 C759.171803,940.99545 760.185831,942.772987 761.727417,943.81459 C760.787345,943.786349 759.899865,943.52221 759.124142,943.090285 L759.124142,943.161719 C759.124142,945.975876 761.104537,948.323221 763.734108,948.854821 C763.252568,948.991044 762.744732,949.059155 762.220461,949.059155 C761.850678,949.059155 761.489112,949.024269 761.13905,948.956157 C761.8704,951.261972 763.990491,952.941495 766.505018,952.986349 C764.539414,954.544601 762.061044,955.473239 759.370664,955.473239 C758.907202,955.473239 758.448671,955.446659 758,955.393499 C760.542466,957.038137 763.563186,958 766.805776,958 C777.373364,958 783.150203,949.153846 783.150203,941.480534 C783.150203,941.228025 783.145272,940.975515 783.135411,940.727988 C784.257909,939.908992 785.232494,938.887324 786,937.722788" id="Twitter" fill="#DDDDDD"></path>
    </g>
</svg>