<?xml version="1.0" encoding="UTF-8"?>
<svg width="23px" height="23px" viewBox="0 0 23 23" version="1.1" xmlns="http://www.w3.org/2000/svg" xmlns:xlink="http://www.w3.org/1999/xlink">
    <!-- Generator: Sketch 48.2 (47327) - http://www.bohemiancoding.com/sketch -->
    <title>Combined Shape</title>
    <desc>Created with Sketch.</desc>
    <defs></defs>
    <g id="Dashboard" stroke="none" stroke-width="1" fill="none" fill-rule="evenodd" transform="translate(-1439.000000, -1346.000000)">
        <g id="Add-fixed" transform="translate(1423.000000, 1330.000000)" fill="#FFFFFF">
            <path d="M28.6,26.4 L37.4,26.4 C38.0075132,26.4 38.5,26.8924868 38.5,27.5 C38.5,28.1075132 38.0075132,28.6 37.4,28.6 L28.6,28.6 L28.6,37.4 C28.6,38.0075132 28.1075132,38.5 27.5,38.5 C26.8924868,38.5 26.4,38.0075132 26.4,37.4 L26.4,28.6 L17.6,28.6 C16.9924868,28.6 16.5,28.1075132 16.5,27.5 C16.5,26.8924868 16.9924868,26.4 17.6,26.4 L26.4,26.4 L26.4,17.6 C26.4,16.9924868 26.8924868,16.5 27.5,16.5 C28.1075132,16.5 28.6,16.9924868 28.6,17.6 L28.6,26.4 Z" id="Combined-Shape"></path>
        </g>
    </g>
</svg>