<?xml version="1.0" encoding="UTF-8"?>
<svg width="17px" height="17px" viewBox="0 0 17 17" version="1.1" xmlns="http://www.w3.org/2000/svg" xmlns:xlink="http://www.w3.org/1999/xlink">
    <!-- Generator: Sketch 51 (57462) - http://www.bohemiancoding.com/sketch -->
    <title>Combined Shape</title>
    <desc>Created with Sketch.</desc>
    <defs></defs>
    <g id="Welcome" stroke="none" stroke-width="1" fill="none" fill-rule="evenodd">
        <g id="Profile" transform="translate(-1158.000000, -889.000000)">
            <rect fill="#FFFFFF" x="0" y="0" width="1509" height="2573"></rect>
            <g id="options-dropdown" transform="translate(1133.000000, 797.000000)" fill="#5FCF80" fill-rule="nonzero">
                <path d="M31.3242981,101.743083 C31.0673195,101.399267 31.1375,100.912067 31.4810507,100.65489 C31.8246015,100.397713 32.3114267,100.467948 32.5684054,100.811763 C33.1084258,101.534265 33.9353842,101.986418 34.8346498,102.050872 C35.7339155,102.115325 36.6168186,101.785722 37.2543081,101.14751 L39.5753176,98.8248777 C40.7528966,97.6047004 40.7360556,95.6651675 39.5374663,94.4656544 C38.338877,93.2661413 36.4008379,93.2492872 35.1896253,94.4199041 L33.8534878,95.7492973 C33.5492359,96.0520134 33.0573802,96.0505783 32.7548973,95.7460919 C32.4524143,95.4416055 32.4538483,94.9493707 32.7581001,94.6466546 L34.1022626,93.3093917 C35.9311189,91.5416617 38.8381776,91.5669427 40.6360615,93.3662124 C42.4339455,95.1654821 42.459207,98.0747815 40.6833757,99.9146836 L38.3530028,102.246853 C37.396918,103.204021 36.0725633,103.698425 34.7236649,103.601745 C33.3747664,103.505065 32.1343288,102.826835 31.3242981,101.743083 Z M35.6757019,99.2569175 C35.9326805,99.600733 35.8625,100.087933 35.5189493,100.34511 C35.1753985,100.602287 34.6885733,100.532052 34.4315946,100.188237 C33.8915742,99.4657354 33.0646158,99.0135816 32.1653502,98.9491283 C31.2660845,98.8846751 30.3831814,99.2142776 29.7456919,99.8524898 L27.4246824,102.175122 C26.2471034,103.3953 26.2639444,105.334832 27.4625337,106.534346 C28.661123,107.733859 30.5991621,107.750713 31.8087709,106.581696 L33.1371402,105.252303 C33.4405089,104.948701 33.9323667,104.948701 34.2357354,105.252303 C34.5391041,105.555906 34.5391041,106.048143 34.2357354,106.351745 L32.8977374,107.690608 C31.0688811,109.458338 28.1618224,109.433057 26.3639385,107.633788 C24.5660545,105.834518 24.540793,102.925219 26.3166243,101.085316 L28.6469972,98.7531474 C29.603082,97.7959787 30.9274367,97.3015749 32.2763351,97.3982548 C33.6252336,97.4949347 34.8656712,98.1731655 35.6757019,99.2569175 Z" id="Combined-Shape"></path>
            </g>
        </g>
    </g>
</svg>