<?xml version="1.0" encoding="UTF-8"?>
<svg width="28px" height="28px" viewBox="0 0 28 28" version="1.1" xmlns="http://www.w3.org/2000/svg" xmlns:xlink="http://www.w3.org/1999/xlink">
    <!-- Generator: Sketch 48.2 (47327) - http://www.bohemiancoding.com/sketch -->
    <title>ProductHunt</title>
    <desc>Created with Sketch.</desc>
    <defs></defs>
    <g id="Profile-Settings" stroke="none" stroke-width="1" fill="none" fill-rule="evenodd" transform="translate(-758.000000, -1159.000000)">
        <path d="M773.866375,1175.8 L773.866375,1175.8 L769.9,1175.8 L769.9,1180 L767.1,1180 L767.1,1166 L773.866375,1166 C776.57275,1166 778.766375,1168.19363 778.766375,1170.9 C778.766375,1173.60638 776.57275,1175.8 773.866375,1175.8 M772,1159 C764.267625,1159 758,1165.26762 758,1173 C758,1180.73238 764.267625,1187 772,1187 C779.7315,1187 786,1180.73238 786,1173 C786,1165.26762 779.7315,1159 772,1159 M773.866375,1168.8 L773.866375,1168.8 L769.9,1168.8 L769.9,1173 L773.866375,1173 C775.026625,1173 775.966375,1172.05938 775.966375,1170.9 C775.966375,1169.74063 775.026625,1168.8 773.866375,1168.8" id="ProductHunt" fill="#DDDDDD"></path>
    </g>
</svg>