<?xml version="1.0" encoding="UTF-8"?>
<svg width="28px" height="28px" viewBox="0 0 28 28" version="1.1" xmlns="http://www.w3.org/2000/svg" xmlns:xlink="http://www.w3.org/1999/xlink">
    <!-- Generator: Sketch 48.2 (47327) - http://www.bohemiancoding.com/sketch -->
    <title>Instagram</title>
    <desc>Created with Sketch.</desc>
    <defs></defs>
    <g id="Profile-Settings" stroke="none" stroke-width="1" fill="none" fill-rule="evenodd" transform="translate(-758.000000, -1046.000000)">
        <path d="M772.000028,1046 C775.802172,1046 776.278933,1046.01612 777.772182,1046.08425 C779.262319,1046.15221 780.280029,1046.3889 781.170532,1046.73501 C782.091156,1047.09273 782.871902,1047.57144 783.650259,1048.34974 C784.42856,1049.1281 784.907266,1049.90884 785.265046,1050.82947 C785.6111,1051.71997 785.847785,1052.73768 785.915751,1054.22782 C785.983884,1055.72107 786,1056.19783 786,1060.00003 C786,1063.80217 785.983884,1064.27893 785.915751,1065.77218 C785.847785,1067.26232 785.6111,1068.28003 785.265046,1069.17053 C784.907266,1070.09116 784.42856,1070.8719 783.650259,1071.65026 C782.871902,1072.42856 782.091156,1072.90727 781.170532,1073.26505 C780.280029,1073.6111 779.262319,1073.84779 777.772182,1073.91575 C776.278933,1073.98388 775.802172,1074 772.000028,1074 C768.197828,1074 767.721067,1073.98388 766.227818,1073.91575 C764.737681,1073.84779 763.719971,1073.6111 762.829468,1073.26505 C761.908844,1072.90727 761.128098,1072.42856 760.349741,1071.65026 C759.57144,1070.8719 759.092734,1070.09116 758.73501,1069.17053 C758.3889,1068.28003 758.152215,1067.26232 758.084249,1065.77218 C758.016116,1064.27893 758,1063.80217 758,1060.00003 C758,1056.19783 758.016116,1055.72107 758.084249,1054.22782 C758.152215,1052.73768 758.3889,1051.71997 758.73501,1050.82947 C759.092734,1049.90884 759.57144,1049.1281 760.349741,1048.34974 C761.128098,1047.57144 761.908844,1047.09273 762.829468,1046.73501 C763.719971,1046.3889 764.737681,1046.15221 766.227818,1046.08425 C767.721067,1046.01612 768.197828,1046 772.000028,1046 Z M772.000028,1048.52252 C768.261848,1048.52252 767.819042,1048.5368 766.342799,1048.60415 C764.977812,1048.6664 764.236523,1048.89447 763.743201,1049.0862 C763.089717,1049.34016 762.623347,1049.64354 762.133471,1050.13347 C761.643538,1050.62335 761.340165,1051.08972 761.086196,1051.7432 C760.894469,1052.23652 760.666397,1052.97781 760.604155,1054.3428 C760.5368,1055.81904 760.522518,1056.26185 760.522518,1060.00003 C760.522518,1063.73815 760.5368,1064.18096 760.604155,1065.6572 C760.666397,1067.02219 760.894469,1067.76348 761.086196,1068.2568 C761.340165,1068.91028 761.643594,1069.37665 762.133471,1069.86653 C762.623347,1070.35646 763.089717,1070.65984 763.743201,1070.9138 C764.236523,1071.10553 764.977812,1071.3336 766.342799,1071.39585 C767.818875,1071.4632 768.261571,1071.47748 772.000028,1071.47748 C775.738429,1071.47748 776.18118,1071.4632 777.657201,1071.39585 C779.022188,1071.3336 779.763477,1071.10553 780.256799,1070.9138 C780.910283,1070.65984 781.376653,1070.35646 781.866529,1069.86653 C782.356462,1069.37665 782.659835,1068.91028 782.913804,1068.2568 C783.105531,1067.76348 783.333603,1067.02219 783.395845,1065.6572 C783.4632,1064.18096 783.477482,1063.73815 783.477482,1060.00003 C783.477482,1056.26185 783.4632,1055.81904 783.395845,1054.3428 C783.333603,1052.97781 783.105531,1052.23652 782.913804,1051.7432 C782.659835,1051.08972 782.356462,1050.62335 781.866529,1050.13347 C781.376653,1049.64354 780.910283,1049.34016 780.256799,1049.0862 C779.763477,1048.89447 779.022188,1048.6664 777.657201,1048.60415 C776.180958,1048.5368 775.738152,1048.52252 772.000028,1048.52252 Z M772.000028,1052.81082 C775.970503,1052.81082 779.189185,1056.0295 779.189185,1060.00003 C779.189185,1063.9705 775.970503,1067.18918 772.000028,1067.18918 C768.029497,1067.18918 764.810815,1063.9705 764.810815,1060.00003 C764.810815,1056.0295 768.029497,1052.81082 772.000028,1052.81082 Z M772.000028,1064.66667 C774.577341,1064.66667 776.666667,1062.57734 776.666667,1060.00003 C776.666667,1057.42266 774.577341,1055.33333 772.000028,1055.33333 C769.422659,1055.33333 767.333333,1057.42266 767.333333,1060.00003 C767.333333,1062.57734 769.422659,1064.66667 772.000028,1064.66667 Z M781.153249,1052.52678 C781.153249,1053.45463 780.401067,1054.20676 779.473219,1054.20676 C778.545426,1054.20676 777.793244,1053.45463 777.793244,1052.52678 C777.793244,1051.59893 778.545426,1050.84675 779.473219,1050.84675 C780.401067,1050.84675 781.153249,1051.59893 781.153249,1052.52678 Z" id="Instagram" fill="#DDDDDD"></path>
    </g>
</svg>